<?xml version="1.0" encoding="utf-8"?>
<!-- Generator: Adobe Illustrator 27.0.0, SVG Export Plug-In . SVG Version: 6.00 Build 0)  -->
<svg version="1.1" id="Capa_1" xmlns="http://www.w3.org/2000/svg" xmlns:xlink="http://www.w3.org/1999/xlink" x="0px" y="0px"
	 viewBox="0 0 45 45" style="enable-background:new 0 0 45 45;" xml:space="preserve">
<style type="text/css">
	.st0{fill-rule:evenodd;clip-rule:evenodd;fill:#079992;}
</style>
<path class="st0" d="M25.1,45H0V3.8h5.6c2.3,0,4.1-2,5.6-3.8h15c1.5,1.7,3.3,3.8,5.6,3.8h5.6v17.2c-0.9-0.2-1.9-0.3-2.8-0.3l-0.9,0
	V7.5h-7.5l-3.8,3.8h-7.3l-3.9-3.8H3.8v33.8h18.5C23,42.7,24,43.9,25.1,45z M34.7,24.4C40.4,24.4,45,29,45,34.7S40.4,45,34.7,45
	c-5.7,0-10.3-4.6-10.3-10.3S29,24.4,34.7,24.4z M34.7,28.1c3.6,0,6.6,2.9,6.6,6.6s-2.9,6.6-6.6,6.6c-3.6,0-6.6-2.9-6.6-6.6
	S31.1,28.1,34.7,28.1z M39.4,35.6h-5.6V30h1.9v3.8h3.8V35.6z M11,28l-2-1.8l-1.5,1.5l3.5,3.3l5.9-6l-1.5-1.5C15.3,23.6,11,28,11,28z
	 M22.5,30h-3.8v-1.9h3.8V30z M26.2,26.2h-7.5v-1.9h7.5V26.2z M11,18.7l-2-1.8l-1.5,1.5l3.5,3.3l5.9-6l-1.5-1.5
	C15.3,14.2,11,18.7,11,18.7z M26.2,20.6h-7.5v-1.9h7.5V20.6z M26.2,16.9h-7.5V15h7.5V16.9z M16.9,5.6c0,1,0.8,1.9,1.9,1.9
	c1,0,1.9-0.8,1.9-1.9s-0.8-1.9-1.9-1.9C17.7,3.8,16.9,4.6,16.9,5.6z"/>
</svg>
