<?xml version="1.0" encoding="utf-8"?>
<!-- Generator: Adobe Illustrator 27.0.0, SVG Export Plug-In . SVG Version: 6.00 Build 0)  -->
<svg version="1.1" id="Capa_1" xmlns="http://www.w3.org/2000/svg" xmlns:xlink="http://www.w3.org/1999/xlink" x="0px" y="0px"
	 viewBox="0 0 45 45" style="enable-background:new 0 0 45 45;" xml:space="preserve">
<style type="text/css">
	.st0{fill:#C0392B;}
</style>
<path class="st0" d="M11.2,22.5H30v1.9H11.2V22.5z M25.9,16.9H11.2v1.9h17C27.4,18.2,26.6,17.6,25.9,16.9z M11.2,13.1h12.2
	c-0.3-0.6-0.4-1.2-0.6-1.9H11.2C11.2,11.2,11.2,13.1,11.2,13.1z M35.6,20.6v4.8c0,7.7-11.2,4.6-11.2,4.6s2.8,11.2-4.9,11.2H5.6V3.8
	h17.8C24,2.3,24.9,1.1,25.9,0h-24v45H21c5.9,0,18.4-13.5,18.4-18v-7.3C38.2,20.2,36.9,20.5,35.6,20.6z M34.7,0
	c-4.7,0-8.4,3.8-8.4,8.4s3.8,8.4,8.4,8.4s8.4-3.8,8.4-8.4S39.3,0,34.7,0z M38.7,5.8L36,8.4l2.7,2.7l-1.3,1.3l-2.7-2.7L32,12.4
	l-1.3-1.3l2.7-2.7l-2.7-2.7L32,4.5l2.7,2.7l2.7-2.7C37.3,4.5,38.7,5.8,38.7,5.8z"/>
</svg>
