<?xml version="1.0" encoding="utf-8"?>
<!-- Generator: Adobe Illustrator 27.0.0, SVG Export Plug-In . SVG Version: 6.00 Build 0)  -->
<svg version="1.1" id="Capa_1" xmlns="http://www.w3.org/2000/svg" xmlns:xlink="http://www.w3.org/1999/xlink" x="0px" y="0px"
	 viewBox="0 0 45 45" style="enable-background:new 0 0 45 45;" xml:space="preserve">
<style type="text/css">
	.st0{fill:#16A085;}
</style>
<path class="st0" d="M11.2,22.6H30v1.9H11.2V22.6z M25.9,16.9H11.2v1.9h17C27.4,18.3,26.6,17.6,25.9,16.9z M11.2,13.2h12.2
	c-0.3-0.6-0.4-1.2-0.6-1.9H11.2C11.2,11.3,11.2,13.2,11.2,13.2z M35.7,20.6v4.8c0,7.7-11.3,4.6-11.3,4.6s2.9,11.3-5,11.3H5.6V3.8
	h17.9C24,2.4,24.9,1.1,25.9,0H1.8v45.1H21c5.9,0,18.4-13.6,18.4-18.1v-7.3C38.3,20.2,37,20.5,35.7,20.6z M43.2,8.5
	c0,4.7-3.8,8.5-8.5,8.5s-8.5-3.8-8.5-8.5S30,0,34.7,0S43.2,3.8,43.2,8.5z M39.1,6.8l-1.3-1.3l-4,4.1L32,7.8l-1.3,1.3l3.2,3.1
	C33.8,12.2,39.1,6.8,39.1,6.8z"/>
</svg>
