<?xml version="1.0" encoding="utf-8"?>
<!-- Generator: Adobe Illustrator 27.0.0, SVG Export Plug-In . SVG Version: 6.00 Build 0)  -->
<svg version="1.1" id="Capa_1" xmlns="http://www.w3.org/2000/svg" xmlns:xlink="http://www.w3.org/1999/xlink" x="0px" y="0px"
	 viewBox="0 0 45 45" style="enable-background:new 0 0 45 45;" xml:space="preserve">
<style type="text/css">
	.st0{fill-rule:evenodd;clip-rule:evenodd;fill:#B71540;}
</style>
<path class="st0" d="M45,2.5C45,1.3,44.1,0,42.5,0h-40C1,0,0,1.3,0,2.5v40C0,44.1,1.3,45,2.5,45h40c1.2,0,2.5-0.9,2.5-2.5V2.5z
	 M3.8,3.8h37.5v37.5H3.8V3.8z M37.5,30.6c0-1-0.8-1.9-1.9-1.9H24.4c-1,0-1.9,0.8-1.9,1.9s0.8,1.9,1.9,1.9h11.2
	C36.7,32.5,37.5,31.7,37.5,30.6z M8.1,29.3l3.1,2.8c0.3,0.3,0.7,0.4,1.1,0.4c0.5,0,0.9-0.2,1.3-0.6l5.3-5.8c0.3-0.3,0.4-0.7,0.4-1.1
	c0-0.9-0.8-1.7-1.7-1.7c-0.5,0-0.9,0.2-1.3,0.6l-4.1,4.5l-1.9-1.7c-0.3-0.3-0.7-0.4-1.1-0.4c-0.9,0-1.7,0.8-1.7,1.7
	C7.5,28.5,7.7,28.9,8.1,29.3z M37.5,22.5c0-1-0.8-1.9-1.9-1.9H24.4c-1,0-1.9,0.8-1.9,1.9c0,1,0.8,1.9,1.9,1.9h11.2
	C36.7,24.4,37.5,23.5,37.5,22.5z M8.1,18.5l3.1,2.8c0.3,0.3,0.7,0.4,1.1,0.4c0.5,0,0.9-0.2,1.3-0.6l5.3-5.8c0.3-0.3,0.4-0.7,0.4-1.1
	c0-0.9-0.8-1.7-1.7-1.7c-0.5,0-0.9,0.2-1.3,0.6l-4.1,4.5l-1.9-1.7c-0.3-0.3-0.7-0.4-1.1-0.4c-0.9,0-1.7,0.8-1.7,1.7
	C7.5,17.7,7.7,18.1,8.1,18.5L8.1,18.5z M37.5,14.4c0-1-0.8-1.9-1.9-1.9H24.4c-1,0-1.9,0.8-1.9,1.9c0,1,0.8,1.9,1.9,1.9h11.2
	C36.7,16.3,37.5,15.4,37.5,14.4z"/>
</svg>
