<?xml version="1.0" encoding="utf-8"?>
<!-- Generator: Adobe Illustrator 27.0.0, SVG Export Plug-In . SVG Version: 6.00 Build 0)  -->
<svg version="1.1" id="Capa_1" xmlns="http://www.w3.org/2000/svg" xmlns:xlink="http://www.w3.org/1999/xlink" x="0px" y="0px"
	 viewBox="0 0 45 45" style="enable-background:new 0 0 45 45;" xml:space="preserve">
<style type="text/css">
	.st0{fill-rule:evenodd;clip-rule:evenodd;fill:#E58E26;}
</style>
<path class="st0" d="M23.7,40.1L34.9,29l2.7,7L14.5,45l-9-22.9C5.5,22.1,23.7,40.1,23.7,40.1z M21.3,0H3.8v17.7l19.9,19.8l17.6-17.6
	L21.3,0z M28.8,17.8c-0.8-0.8-1.6-1.2-2.6-1.2c-1.1,0-2.3,0.5-4.1,1.5c-1.3,0.8-2.1,1.1-2.7,1.1c-0.7,0-2-0.8-1.8-2.3
	c0.1-0.6,0.5-1.3,1.1-1.9c1.2-1.2,2.9-1.6,4.3-0.2l1.4-1.4c-0.9-0.9-2.1-1.5-3.3-1.5c-1.1,0-2.1,0.4-3.1,1.3L16.8,12l-1.3,1.3
	l1.2,1.2c-1.1,1.5-1.6,3.8,0.1,5.5c1.9,1.9,4.1,1,6.4-0.4c1.1-0.7,2-1.1,2.8-1.1c1.1,0,2.2,0.9,2,2.4c-0.1,0.7-0.5,1.4-1.2,2.1
	c-0.8,0.8-1.7,1.3-2.5,1.3c-0.8,0-1.4-0.4-2-0.9L21,24.8c0.9,0.9,2,1.4,3.3,1.4c1,0,2-0.4,3-1.1l1,1l1.3-1.3l-1-1
	C30,22.2,30.8,19.7,28.8,17.8z M10.7,3.8c1.8,0,3.2,1.4,3.2,3.2s-1.4,3.2-3.2,3.2c-1.8,0-3.2-1.4-3.2-3.2S8.9,3.7,10.7,3.8z"/>
</svg>
